<svg xmlns="http://www.w3.org/2000/svg" xmlns:v="https://svgstorm.com"
viewBox = "0 0 235 231"
width="235"
height="231">
<g fill="None" fill-opacity="0.0" stroke="#000000" stroke-opacity="0.00" stroke-width="0.3"><path d="
M 0.00 101.00 
C 0.76 99.68 1.75 96.36 2.00 95.00
C 2.21 92.68 2.51 91.12 3.00 89.00
C 3.50 86.83 4.42 84.79 5.00 83.00
C 5.57 80.50 6.09 78.43 7.00 76.00
C 7.63 74.31 7.68 73.28 9.00 72.00
C 9.03 71.50 9.00 71.00 9.00 71.00
C 11.42 60.69 21.08 45.24 30.00 39.00
C 30.23 38.84 30.00 38.00 30.00 38.00
C 31.17 35.61 33.92 33.43 36.00 32.00
C 36.79 31.17 37.16 31.60 38.00 31.00
C 45.99 25.29 52.07 18.56 61.00 14.00
C 63.98 12.48 67.05 11.35 70.00 10.00
C 72.23 8.98 74.45 7.87 77.00 7.00
C 79.45 6.16 81.42 5.52 84.00 5.00
C 86.21 4.28 88.38 3.56 91.00 3.00
C 92.57 2.47 93.91 2.13 96.00 2.00
C 97.64 1.74 99.67 0.75 102.00 1.00
C 102.49 1.05 103.00 1.00 103.00 1.00
C 103.25 0.75 103.00 0.00 103.00 0.00
L 0.00 0.00
L 0.00 101.00 Z"/>
</g>
<g fill="None" fill-opacity="0.0" stroke="#FEFFA7" stroke-opacity="0.56" stroke-width="0.3"><path d="
M 103.00 1.00 
C 106.50 1.00 111.32 1.81 114.00 0.00
L 103.00 0.00
C 103.00 0.00 103.25 0.75 103.00 1.00 Z"/>
</g>
<g fill="None" fill-opacity="0.0" stroke="#FEFEFD" stroke-opacity="1.00" stroke-width="0.3"><path d="
M 103.00 1.00 
C 103.00 1.00 102.49 1.05 102.00 1.00
C 100.34 2.41 98.27 1.86 96.00 2.00
C 93.91 2.13 92.57 2.47 91.00 3.00
C 88.88 3.72 86.53 4.49 84.00 5.00
C 81.42 5.52 79.45 6.16 77.00 7.00
C 74.90 7.98 72.25 8.96 70.00 10.00
C 67.17 11.31 63.99 13.47 61.00 15.00
C 53.00 19.09 44.45 24.55 38.00 31.00
C 35.41 33.59 32.54 36.46 30.00 39.00
C 20.58 48.42 16.84 61.23 9.00 71.00
C 9.00 71.00 9.03 71.50 9.00 72.00
C 8.88 73.91 7.70 74.64 7.00 76.00
C 6.09 78.43 5.57 80.50 5.00 83.00
C 4.50 85.18 3.59 87.21 3.00 89.00
C 2.51 91.12 2.21 92.68 2.00 95.00
C 1.75 97.81 1.23 100.35 1.00 103.00
C 0.75 105.87 1.98 109.96 0.00 112.00
L 0.00 120.00
C 1.59 120.84 0.89 123.43 1.00 125.00
C 1.29 129.17 1.62 132.82 2.00 137.00
C 2.21 139.32 2.51 140.88 3.00 143.00
C 3.64 144.97 4.90 146.46 5.00 149.00
C 5.02 149.50 5.00 150.00 5.00 150.00
C 6.05 151.47 6.46 153.11 7.00 155.00
C 7.62 157.16 8.16 158.86 9.00 161.00
C 14.75 171.78 21.03 184.03 30.00 193.00
C 32.59 195.59 35.46 198.46 38.00 201.00
C 48.82 211.82 63.80 218.83 77.00 225.00
C 79.45 225.84 81.42 226.48 84.00 227.00
C 86.50 227.50 88.91 228.30 91.00 229.00
C 92.57 229.53 93.91 229.87 96.00 230.00
C 97.90 230.12 100.91 229.20 102.00 231.00
L 134.00 231.00
C 135.15 229.32 138.11 230.12 140.00 230.00
C 142.15 229.87 143.40 229.54 145.00 229.00
C 147.12 228.28 149.47 227.51 152.00 227.00
C 154.54 226.49 156.55 225.84 159.00 225.00
C 161.71 223.73 165.17 222.40 168.00 221.00
C 170.18 219.92 172.64 218.21 175.00 217.00
C 183.00 212.91 191.55 207.45 198.00 201.00
C 200.59 198.41 203.46 195.54 206.00 193.00
C 215.00 184.00 221.26 171.75 227.00 161.00
C 228.62 156.87 230.01 153.34 231.00 149.00
C 231.50 146.82 232.41 144.79 233.00 143.00
C 233.48 140.92 233.82 139.29 234.00 137.00
C 234.15 135.10 233.17 132.09 235.00 131.00
L 235.00 101.00
C 233.30 99.85 234.15 96.89 234.00 95.00
C 233.82 92.66 233.49 91.13 233.00 89.00
C 232.36 87.03 231.10 85.54 231.00 83.00
C 230.98 82.50 231.00 82.00 231.00 82.00
C 230.02 80.64 229.26 78.89 229.00 77.00
C 228.93 76.51 229.00 76.00 229.00 76.00
C 227.89 74.92 227.11 73.72 227.00 72.00
C 226.97 71.50 227.00 71.00 227.00 71.00
C 224.35 67.70 221.14 61.57 219.25 57.75 C 217.35 53.94 211.77 47.86 212.00 45.00
C 211.77 44.72 211.32 44.20 211.00 44.00
C 208.85 42.67 207.65 40.65 206.00 39.00
C 203.41 36.41 200.54 33.54 198.00 31.00
C 187.18 20.18 172.20 13.17 159.00 7.00
C 156.55 6.16 154.58 5.52 152.00 5.00
C 149.50 4.50 147.09 3.70 145.00 3.00
C 143.43 2.47 142.09 2.13 140.00 2.00
C 137.63 1.85 135.72 2.47 134.00 1.00
C 133.51 1.05 133.00 1.00 133.00 1.00
C 131.00 1.00 129.00 1.04 127.00 1.00
C 125.11 0.96 122.08 1.75 121.00 0.00
L 114.00 0.00
C 111.32 1.81 106.50 1.00 103.00 1.00
M 170.00 28.00 
C 177.95 29.82 191.15 31.89 197.25 37.75 C 203.34 43.61 205.57 57.51 207.00 66.00
C 213.95 83.28 222.16 101.27 220.01 121.01 C 217.86 140.74 212.50 157.13 202.23 173.23 C 191.95 189.33 178.62 195.45 164.00 206.00
C 159.81 210.53 154.82 218.16 148.75 220.75 C 142.69 223.34 129.56 216.45 123.00 216.00
C 94.69 214.07 69.96 208.12 49.25 187.75 C 28.54 167.38 22.15 144.16 19.00 116.00
C 16.11 107.45 11.06 93.13 14.77 84.77 C 18.48 76.41 27.80 71.42 33.00 64.00
C 42.63 50.24 50.55 39.16 65.75 29.75 C 80.94 20.33 98.06 15.43 117.00 14.00 C 135.94 12.57 153.72 20.89 170.00 28.00 Z"/>
</g>
<g fill="None" fill-opacity="0.0" stroke="#FEFFC9" stroke-opacity="0.89" stroke-width="0.3"><path d="
M 127.00 1.00 
C 126.90 0.98 127.00 0.00 127.00 0.00
L 121.00 0.00
C 122.08 1.75 125.11 0.96 127.00 1.00 Z"/>
</g>
<g fill="None" fill-opacity="0.0" stroke="#FEFF8E" stroke-opacity="0.31" stroke-width="0.3"><path d="
M 127.00 1.00 
C 129.00 1.04 131.00 1.00 133.00 1.00
C 132.75 0.75 133.00 0.00 133.00 0.00
L 127.00 0.00
C 127.00 0.00 126.90 0.98 127.00 1.00 Z"/>
</g>
<g fill="None" fill-opacity="0.0" stroke="#000000" stroke-opacity="0.00" stroke-width="0.3"><path d="
M 133.00 1.00 
C 133.00 1.00 133.51 1.05 134.00 1.00
C 136.37 0.74 138.38 1.75 140.00 2.00
C 142.09 2.13 143.43 2.47 145.00 3.00
C 147.60 3.56 149.82 4.29 152.00 5.00
C 154.58 5.52 156.55 6.16 159.00 7.00
C 174.64 12.35 184.87 21.61 198.00 31.00
C 198.35 31.25 199.54 31.68 200.00 32.00
C 202.14 33.47 204.85 35.66 206.00 38.00
C 206.20 38.40 206.00 39.00 206.00 39.00
C 208.05 40.43 209.52 42.10 211.00 44.00
C 211.32 44.20 211.77 44.72 212.00 45.00
C 217.83 52.16 224.89 62.00 227.00 71.00
C 227.00 71.00 226.97 71.50 227.00 72.00
C 228.11 73.08 228.89 74.28 229.00 76.00
C 229.00 76.00 228.93 76.51 229.00 77.00
C 230.50 78.22 231.06 79.96 231.00 82.00
C 231.00 82.00 230.98 82.50 231.00 83.00
C 232.44 84.77 232.47 86.69 233.00 89.00
C 233.49 91.13 233.82 92.66 234.00 95.00
C 234.00 95.00 235.00 95.00 235.00 95.00
L 235.00 0.00
L 133.00 0.00
C 133.00 0.00 132.75 0.75 133.00 1.00 Z"/>
</g>
<g fill="None" fill-opacity="0.0" stroke="#FEFF9C" stroke-opacity="0.44" stroke-width="0.3"><path d="
M 96.00 2.00 
C 98.27 1.86 100.34 2.41 102.00 1.00
C 99.67 0.75 97.64 1.74 96.00 2.00 Z"/>
</g>
<g fill="None" fill-opacity="0.0" stroke="#FEFF9C" stroke-opacity="0.44" stroke-width="0.3"><path d="
M 140.00 2.00 
C 138.38 1.75 136.37 0.74 134.00 1.00
C 135.72 2.47 137.63 1.85 140.00 2.00 Z"/>
</g>
<g fill="None" fill-opacity="0.0" stroke="#FEFF95" stroke-opacity="0.43" stroke-width="0.3"><path d="
M 84.00 5.00 
C 86.53 4.49 88.88 3.72 91.00 3.00
C 88.38 3.56 86.21 4.28 84.00 5.00 Z"/>
</g>
<g fill="None" fill-opacity="0.0" stroke="#FEFF95" stroke-opacity="0.43" stroke-width="0.3"><path d="
M 152.00 5.00 
C 149.82 4.29 147.60 3.56 145.00 3.00
C 147.09 3.70 149.50 4.50 152.00 5.00 Z"/>
</g>
<g fill="None" fill-opacity="0.0" stroke="#FEFF96" stroke-opacity="0.37" stroke-width="0.3"><path d="
M 70.00 10.00 
C 72.25 8.96 74.90 7.98 77.00 7.00
C 74.45 7.87 72.23 8.98 70.00 10.00 Z"/>
</g>
<g fill="None" fill-opacity="0.0" stroke="#FEFF99" stroke-opacity="0.44" stroke-width="0.3"><path d="
M 198.00 31.00 
C 184.87 21.61 174.64 12.35 159.00 7.00
C 172.20 13.17 187.18 20.18 198.00 31.00 Z"/>
</g>
<g fill="None" fill-opacity="0.0" stroke="#FEFFA8" stroke-opacity="0.60" stroke-width="0.3"><path d="
M 61.00 14.00 
C 60.78 14.12 61.00 15.00 61.00 15.00
C 63.99 13.47 67.17 11.31 70.00 10.00
C 67.05 11.35 63.98 12.48 61.00 14.00 Z"/>
</g>
<g fill="None" fill-opacity="0.0" stroke="#FEFF95" stroke-opacity="0.40" stroke-width="0.3"><path d="
M 38.00 31.00 
C 44.45 24.55 53.00 19.09 61.00 15.00
C 61.00 15.00 60.78 14.12 61.00 14.00
C 52.07 18.56 45.99 25.29 38.00 31.00 Z"/>
</g>
<g fill="None" fill-opacity="0.0" stroke="#119570" stroke-opacity="1.00" stroke-width="0.3"><path d="
M 33.00 64.00 
C 68.86 33.36 122.14 17.05 170.00 28.00
C 153.72 20.89 135.94 12.57 117.00 14.00 C 98.06 15.43 80.94 20.33 65.75 29.75 C 50.55 39.16 42.63 50.24 33.00 64.00 Z"/>
</g>
<g fill="None" fill-opacity="0.0" stroke="#F9AC31" stroke-opacity="1.00" stroke-width="0.3"><path d="
M 33.00 64.00 
C 27.80 71.42 18.48 76.41 14.77 84.77 C 11.06 93.13 16.11 107.45 19.00 116.00
C 27.18 140.23 41.24 163.78 61.00 181.00
C 65.48 172.37 69.26 161.82 77.00 155.00
C 72.91 151.03 68.57 146.75 65.00 142.00
C 61.32 144.14 60.62 150.31 56.00 151.00
C 44.23 133.03 35.12 113.15 31.00 92.00
C 37.04 85.59 42.20 79.52 49.10 74.10 C 55.99 68.67 63.30 63.79 71.23 59.23 C 79.16 54.67 87.98 52.18 97.02 49.02 C 106.07 45.87 118.07 43.90 128.00 43.00 C 137.93 42.11 152.29 41.80 161.67 44.33 C 171.05 46.86 183.47 45.77 185.99 56.01 C 188.52 66.24 193.32 75.43 192.00 87.00 C 190.68 98.57 201.44 100.97 210.00 106.00
C 210.45 92.29 209.75 78.91 207.00 66.00
C 205.57 57.51 203.34 43.61 197.25 37.75 C 191.15 31.89 177.95 29.82 170.00 28.00
C 122.14 17.05 68.86 33.36 33.00 64.00 Z"/>
</g>
<g fill="None" fill-opacity="0.0" stroke="#FEFFC2" stroke-opacity="0.76" stroke-width="0.3"><path d="
M 36.00 32.00 
C 34.01 34.09 32.38 36.34 30.00 38.00
C 30.00 38.00 30.23 38.84 30.00 39.00
C 32.54 36.46 35.41 33.59 38.00 31.00
C 37.16 31.60 36.79 31.17 36.00 32.00 Z"/>
</g>
<g fill="None" fill-opacity="0.0" stroke="#FEFFC2" stroke-opacity="0.76" stroke-width="0.3"><path d="
M 206.00 39.00 
C 206.00 39.00 206.20 38.40 206.00 38.00
C 203.58 36.31 201.94 34.03 200.00 32.00
C 199.54 31.68 198.35 31.25 198.00 31.00
C 200.54 33.54 203.41 36.41 206.00 39.00 Z"/>
</g>
<g fill="None" fill-opacity="0.0" stroke="#FEFF6D" stroke-opacity="0.02" stroke-width="0.3"><path d="
M 30.00 38.00 
C 32.38 36.34 34.01 34.09 36.00 32.00
C 33.92 33.43 31.17 35.61 30.00 38.00 Z"/>
</g>
<g fill="None" fill-opacity="0.0" stroke="#FEFF74" stroke-opacity="0.02" stroke-width="0.3"><path d="
M 206.00 38.00 
C 204.85 35.66 202.14 33.47 200.00 32.00
C 201.94 34.03 203.58 36.31 206.00 38.00 Z"/>
</g>
<g fill="None" fill-opacity="0.0" stroke="#FEFF93" stroke-opacity="0.39" stroke-width="0.3"><path d="
M 9.00 71.00 
C 16.84 61.23 20.58 48.42 30.00 39.00
C 21.08 45.24 11.42 60.69 9.00 71.00 Z"/>
</g>
<g fill="None" fill-opacity="0.0" stroke="#FEFF90" stroke-opacity="0.37" stroke-width="0.3"><path d="
M 211.00 44.00 
C 209.52 42.10 208.05 40.43 206.00 39.00
C 207.65 40.65 208.85 42.67 211.00 44.00 Z"/>
</g>
<g fill="None" fill-opacity="0.0" stroke="#0D9570" stroke-opacity="1.00" stroke-width="0.3"><path d="
M 65.00 142.00 
C 55.87 129.85 50.70 118.15 46.22 103.78 C 41.75 89.40 56.18 81.40 68.70 73.70 C 81.22 66.00 93.51 61.59 109.08 57.08 C 124.64 52.56 143.69 54.48 161.22 55.78 C 178.75 57.08 180.85 76.76 181.00 93.00
C 175.05 91.53 169.08 90.11 163.00 89.00
C 163.34 83.41 161.17 78.48 161.00 73.00
C 149.99 71.14 137.11 70.09 126.00 72.00 C 114.89 73.91 105.55 76.57 94.98 79.98 C 84.40 83.38 81.00 88.73 70.75 93.75 C 60.50 98.77 65.50 109.10 70.31 117.69 C 75.11 126.29 79.25 132.91 86.25 139.75 C 93.24 146.59 100.14 151.62 108.08 156.92 C 116.03 162.22 125.08 166.93 134.00 170.00
C 137.03 163.48 142.13 160.07 145.75 153.75 C 149.38 147.44 152.02 142.06 154.98 134.98 C 157.93 127.89 162.46 120.50 148.00 122.00 C 133.54 123.51 115.47 129.13 108.00 112.00
C 130.19 104.65 158.40 102.34 180.00 112.00
C 189.77 115.34 199.76 118.12 208.00 125.00
C 201.51 155.39 184.98 182.48 164.00 206.00
C 178.62 195.45 191.95 189.33 202.23 173.23 C 212.50 157.13 217.86 140.74 220.01 121.01 C 222.16 101.27 213.95 83.28 207.00 66.00
C 209.75 78.91 210.45 92.29 210.00 106.00
C 201.44 100.97 190.68 98.57 192.00 87.00 C 193.32 75.43 188.52 66.24 185.99 56.01 C 183.47 45.77 171.05 46.86 161.67 44.33 C 152.29 41.80 137.93 42.11 128.00 43.00 C 118.07 43.90 106.07 45.87 97.02 49.02 C 87.98 52.18 79.16 54.67 71.23 59.23 C 63.30 63.79 55.99 68.67 49.10 74.10 C 42.20 79.52 37.04 85.59 31.00 92.00
C 35.12 113.15 44.23 133.03 56.00 151.00
C 60.62 150.31 61.32 144.14 65.00 142.00 Z"/>
</g>
<g fill="None" fill-opacity="0.0" stroke="#FEFF94" stroke-opacity="0.38" stroke-width="0.3"><path d="
M 227.00 71.00 
C 224.89 62.00 217.83 52.16 212.00 45.00
C 211.77 47.86 217.35 53.94 219.25 57.75 C 221.14 61.57 224.35 67.70 227.00 71.00 Z"/>
</g>
<g fill="None" fill-opacity="0.0" stroke="#FDFEFD" stroke-opacity="1.00" stroke-width="0.3"><path d="
M 65.00 142.00 
C 68.57 146.75 72.91 151.03 77.00 155.00
C 94.57 172.06 116.98 184.41 140.00 190.00
C 155.34 172.11 169.22 150.53 177.00 128.00
C 177.69 125.31 180.95 114.17 180.00 112.00
C 158.40 102.34 130.19 104.65 108.00 112.00
C 115.47 129.13 133.54 123.51 148.00 122.00 C 162.46 120.50 157.93 127.89 154.98 134.98 C 152.02 142.06 149.38 147.44 145.75 153.75 C 142.13 160.07 137.03 163.48 134.00 170.00
C 125.08 166.93 116.03 162.22 108.08 156.92 C 100.14 151.62 93.24 146.59 86.25 139.75 C 79.25 132.91 75.11 126.29 70.31 117.69 C 65.50 109.10 60.50 98.77 70.75 93.75 C 81.00 88.73 84.40 83.38 94.98 79.98 C 105.55 76.57 114.89 73.91 126.00 72.00 C 137.11 70.09 149.99 71.14 161.00 73.00
C 161.17 78.48 163.34 83.41 163.00 89.00
C 169.08 90.11 175.05 91.53 181.00 93.00
C 180.85 76.76 178.75 57.08 161.22 55.78 C 143.69 54.48 124.64 52.56 109.08 57.08 C 93.51 61.59 81.22 66.00 68.70 73.70 C 56.18 81.40 41.75 89.40 46.22 103.78 C 50.70 118.15 55.87 129.85 65.00 142.00 Z"/>
</g>
<g fill="None" fill-opacity="0.0" stroke="#FEFF97" stroke-opacity="0.44" stroke-width="0.3"><path d="
M 7.00 76.00 
C 7.70 74.64 8.88 73.91 9.00 72.00
C 7.68 73.28 7.63 74.31 7.00 76.00 Z"/>
</g>
<g fill="None" fill-opacity="0.0" stroke="#FEFF97" stroke-opacity="0.44" stroke-width="0.3"><path d="
M 229.00 76.00 
C 228.89 74.28 228.11 73.08 227.00 72.00
C 227.11 73.72 227.89 74.92 229.00 76.00 Z"/>
</g>
<g fill="None" fill-opacity="0.0" stroke="#FEFF86" stroke-opacity="0.35" stroke-width="0.3"><path d="
M 231.00 82.00 
C 231.06 79.96 230.50 78.22 229.00 77.00
C 229.26 78.89 230.02 80.64 231.00 82.00 Z"/>
</g>
<g fill="None" fill-opacity="0.0" stroke="#FEFF9B" stroke-opacity="0.42" stroke-width="0.3"><path d="
M 3.00 89.00 
C 3.59 87.21 4.50 85.18 5.00 83.00
C 4.42 84.79 3.50 86.83 3.00 89.00 Z"/>
</g>
<g fill="None" fill-opacity="0.0" stroke="#FEFF97" stroke-opacity="0.42" stroke-width="0.3"><path d="
M 233.00 89.00 
C 232.47 86.69 232.44 84.77 231.00 83.00
C 231.10 85.54 232.36 87.03 233.00 89.00 Z"/>
</g>
<g fill="None" fill-opacity="0.0" stroke="#FEFFA4" stroke-opacity="0.41" stroke-width="0.3"><path d="
M 0.00 101.00 
L 0.00 103.00
C 0.50 103.00 1.00 103.00 1.00 103.00
C 1.23 100.35 1.75 97.81 2.00 95.00
C 1.75 96.36 0.76 99.68 0.00 101.00 Z"/>
</g>
<g fill="None" fill-opacity="0.0" stroke="#FEFFA9" stroke-opacity="0.53" stroke-width="0.3"><path d="
M 235.00 101.00 
L 235.00 95.00
C 235.00 95.00 234.00 95.00 234.00 95.00
C 234.15 96.89 233.30 99.85 235.00 101.00 Z"/>
</g>
<g fill="None" fill-opacity="0.0" stroke="#FEFFAC" stroke-opacity="0.65" stroke-width="0.3"><path d="
M 0.00 112.00 
C 1.98 109.96 0.75 105.87 1.00 103.00
C 1.00 103.00 0.50 103.00 0.00 103.00
L 0.00 112.00 Z"/>
</g>
<g fill="None" fill-opacity="0.0" stroke="#FAAD31" stroke-opacity="1.00" stroke-width="0.3"><path d="
M 177.00 128.00 
C 178.45 130.83 186.22 129.79 188.00 133.00
C 183.16 148.75 174.55 162.62 165.25 176.25 C 155.94 189.88 144.85 206.70 127.78 198.22 C 110.71 189.74 97.74 187.99 83.00 176.00
C 78.72 181.92 73.16 190.99 80.75 195.25 C 88.33 199.51 93.11 202.78 100.69 206.31 C 108.28 209.83 115.80 212.33 123.00 216.00
C 129.56 216.45 142.69 223.34 148.75 220.75 C 154.82 218.16 159.81 210.53 164.00 206.00
C 184.98 182.48 201.51 155.39 208.00 125.00
C 199.76 118.12 189.77 115.34 180.00 112.00
C 180.95 114.17 177.69 125.31 177.00 128.00 Z"/>
</g>
<g fill="None" fill-opacity="0.0" stroke="#0F9570" stroke-opacity="1.00" stroke-width="0.3"><path d="
M 123.00 216.00 
C 115.80 212.33 108.28 209.83 100.69 206.31 C 93.11 202.78 88.33 199.51 80.75 195.25 C 73.16 190.99 78.72 181.92 83.00 176.00
C 97.74 187.99 110.71 189.74 127.78 198.22 C 144.85 206.70 155.94 189.88 165.25 176.25 C 174.55 162.62 183.16 148.75 188.00 133.00
C 186.22 129.79 178.45 130.83 177.00 128.00
C 169.22 150.53 155.34 172.11 140.00 190.00
C 116.98 184.41 94.57 172.06 77.00 155.00
C 69.26 161.82 65.48 172.37 61.00 181.00
C 41.24 163.78 27.18 140.23 19.00 116.00
C 22.15 144.16 28.54 167.38 49.25 187.75 C 69.96 208.12 94.69 214.07 123.00 216.00 Z"/>
</g>
<g fill="None" fill-opacity="0.0" stroke="#FEFFC1" stroke-opacity="0.86" stroke-width="0.3"><path d="
M 0.00 125.00 
C 0.50 125.00 1.00 125.00 1.00 125.00
C 0.89 123.43 1.59 120.84 0.00 120.00
L 0.00 125.00 Z"/>
</g>
<g fill="None" fill-opacity="0.0" stroke="#FEFF9E" stroke-opacity="0.40" stroke-width="0.3"><path d="
M 0.00 131.00 
C 0.76 132.32 1.75 135.64 2.00 137.00
C 1.62 132.82 1.29 129.17 1.00 125.00
C 1.00 125.00 0.50 125.00 0.00 125.00
L 0.00 131.00 Z"/>
</g>
<g fill="None" fill-opacity="0.0" stroke="#000000" stroke-opacity="0.00" stroke-width="0.3"><path d="
M 0.00 231.00 
L 96.00 231.00
C 96.00 230.50 96.00 230.00 96.00 230.00
C 93.91 229.87 92.57 229.53 91.00 229.00
C 88.40 228.44 86.18 227.71 84.00 227.00
C 81.42 226.48 79.45 225.84 77.00 225.00
C 61.36 219.65 51.13 210.39 38.00 201.00
C 37.65 200.75 36.46 200.32 36.00 200.00
C 33.86 198.53 31.15 196.34 30.00 194.00
C 29.80 193.60 30.00 193.00 30.00 193.00
C 19.99 186.00 13.23 171.77 9.00 161.00
C 8.16 158.86 7.62 157.16 7.00 155.00
C 6.25 153.14 4.92 152.58 5.00 150.00
C 5.00 150.00 5.02 149.50 5.00 149.00
C 3.56 147.23 3.53 145.31 3.00 143.00
C 2.51 140.88 2.21 139.32 2.00 137.00
C 1.75 135.64 0.76 132.32 0.00 131.00
L 0.00 231.00 Z"/>
</g>
<g fill="None" fill-opacity="0.0" stroke="#FEFFA9" stroke-opacity="0.53" stroke-width="0.3"><path d="
M 234.00 137.00 
C 234.00 137.00 235.00 137.00 235.00 137.00
L 235.00 131.00
C 233.17 132.09 234.15 135.10 234.00 137.00 Z"/>
</g>
<g fill="None" fill-opacity="0.0" stroke="#000000" stroke-opacity="0.00" stroke-width="0.3"><path d="
M 233.00 143.00 
C 232.50 145.17 231.58 147.21 231.00 149.00
C 230.01 153.34 228.62 156.87 227.00 161.00
C 222.78 171.74 215.97 186.03 206.00 193.00
C 205.77 193.16 206.00 194.00 206.00 194.00
C 204.83 196.39 202.08 198.57 200.00 200.00
C 199.21 200.83 198.84 200.40 198.00 201.00
C 190.01 206.71 183.93 213.44 175.00 218.00
C 172.71 219.17 170.21 219.91 168.00 221.00
C 165.04 222.46 162.32 223.86 159.00 225.00
C 156.55 225.84 154.54 226.49 152.00 227.00
C 149.79 227.72 147.62 228.44 145.00 229.00
C 143.40 229.54 142.15 229.87 140.00 230.00
C 139.98 230.00 140.00 231.00 140.00 231.00
L 235.00 231.00
L 235.00 137.00
C 235.00 137.00 234.00 137.00 234.00 137.00
C 233.82 139.29 233.48 140.92 233.00 143.00 Z"/>
</g>
<g fill="None" fill-opacity="0.0" stroke="#FEFF97" stroke-opacity="0.42" stroke-width="0.3"><path d="
M 5.00 149.00 
C 4.90 146.46 3.64 144.97 3.00 143.00
C 3.53 145.31 3.56 147.23 5.00 149.00 Z"/>
</g>
<g fill="None" fill-opacity="0.0" stroke="#FEFF9B" stroke-opacity="0.42" stroke-width="0.3"><path d="
M 231.00 149.00 
C 231.58 147.21 232.50 145.17 233.00 143.00
C 232.41 144.79 231.50 146.82 231.00 149.00 Z"/>
</g>
<g fill="None" fill-opacity="0.0" stroke="#FEFF86" stroke-opacity="0.35" stroke-width="0.3"><path d="
M 7.00 155.00 
C 6.46 153.11 6.05 151.47 5.00 150.00
C 4.92 152.58 6.25 153.14 7.00 155.00 Z"/>
</g>
<g fill="None" fill-opacity="0.0" stroke="#FEFF99" stroke-opacity="0.39" stroke-width="0.3"><path d="
M 30.00 193.00 
C 21.03 184.03 14.75 171.78 9.00 161.00
C 13.23 171.77 19.99 186.00 30.00 193.00 Z"/>
</g>
<g fill="None" fill-opacity="0.0" stroke="#FEFF93" stroke-opacity="0.39" stroke-width="0.3"><path d="
M 206.00 193.00 
C 215.97 186.03 222.78 171.74 227.00 161.00
C 221.26 171.75 215.00 184.00 206.00 193.00 Z"/>
</g>
<g fill="None" fill-opacity="0.0" stroke="#FEFFC2" stroke-opacity="0.76" stroke-width="0.3"><path d="
M 30.00 194.00 
C 32.42 195.69 34.06 197.97 36.00 200.00
C 36.46 200.32 37.65 200.75 38.00 201.00
C 35.46 198.46 32.59 195.59 30.00 193.00
C 30.00 193.00 29.80 193.60 30.00 194.00 Z"/>
</g>
<g fill="None" fill-opacity="0.0" stroke="#FEFFC2" stroke-opacity="0.76" stroke-width="0.3"><path d="
M 198.00 201.00 
C 198.84 200.40 199.21 200.83 200.00 200.00
C 201.99 197.91 203.62 195.66 206.00 194.00
C 206.00 194.00 205.77 193.16 206.00 193.00
C 203.46 195.54 200.59 198.41 198.00 201.00 Z"/>
</g>
<g fill="None" fill-opacity="0.0" stroke="#FEFF74" stroke-opacity="0.02" stroke-width="0.3"><path d="
M 36.00 200.00 
C 34.06 197.97 32.42 195.69 30.00 194.00
C 31.15 196.34 33.86 198.53 36.00 200.00 Z"/>
</g>
<g fill="None" fill-opacity="0.0" stroke="#FEFF6D" stroke-opacity="0.02" stroke-width="0.3"><path d="
M 200.00 200.00 
C 202.08 198.57 204.83 196.39 206.00 194.00
C 203.62 195.66 201.99 197.91 200.00 200.00 Z"/>
</g>
<g fill="None" fill-opacity="0.0" stroke="#FEFF99" stroke-opacity="0.44" stroke-width="0.3"><path d="
M 77.00 225.00 
C 63.80 218.83 48.82 211.82 38.00 201.00
C 51.13 210.39 61.36 219.65 77.00 225.00 Z"/>
</g>
<g fill="None" fill-opacity="0.0" stroke="#FEFF95" stroke-opacity="0.40" stroke-width="0.3"><path d="
M 175.00 217.00 
C 174.78 217.12 175.00 218.00 175.00 218.00
C 183.93 213.44 190.01 206.71 198.00 201.00
C 191.55 207.45 183.00 212.91 175.00 217.00 Z"/>
</g>
<g fill="None" fill-opacity="0.0" stroke="#FEFFAC" stroke-opacity="0.63" stroke-width="0.3"><path d="
M 168.00 221.00 
C 170.21 219.91 172.71 219.17 175.00 218.00
C 175.00 218.00 174.78 217.12 175.00 217.00
C 172.64 218.21 170.18 219.92 168.00 221.00 Z"/>
</g>
<g fill="None" fill-opacity="0.0" stroke="#FEFF97" stroke-opacity="0.40" stroke-width="0.3"><path d="
M 159.00 225.00 
C 162.32 223.86 165.04 222.46 168.00 221.00
C 165.17 222.40 161.71 223.73 159.00 225.00 Z"/>
</g>
<g fill="None" fill-opacity="0.0" stroke="#FEFF95" stroke-opacity="0.43" stroke-width="0.3"><path d="
M 91.00 229.00 
C 88.91 228.30 86.50 227.50 84.00 227.00
C 86.18 227.71 88.40 228.44 91.00 229.00 Z"/>
</g>
<g fill="None" fill-opacity="0.0" stroke="#FEFF95" stroke-opacity="0.43" stroke-width="0.3"><path d="
M 145.00 229.00 
C 147.62 228.44 149.79 227.72 152.00 227.00
C 149.47 227.51 147.12 228.28 145.00 229.00 Z"/>
</g>
<g fill="None" fill-opacity="0.0" stroke="#FEFF9C" stroke-opacity="0.44" stroke-width="0.3"><path d="
M 96.00 231.00 
L 102.00 231.00
C 100.91 229.20 97.90 230.12 96.00 230.00
C 96.00 230.00 96.00 230.50 96.00 231.00 Z"/>
</g>
<g fill="None" fill-opacity="0.0" stroke="#FEFF9C" stroke-opacity="0.44" stroke-width="0.3"><path d="
M 134.00 231.00 
L 140.00 231.00
C 140.00 231.00 139.98 230.00 140.00 230.00
C 138.11 230.12 135.15 229.32 134.00 231.00 Z"/>
</g>
<g fill="#000000" fill-opacity="0.00" stroke="None">
<path d="
M 0.00 101.00 
C 0.76 99.68 1.75 96.36 2.00 95.00
C 2.21 92.68 2.51 91.12 3.00 89.00
C 3.50 86.83 4.42 84.79 5.00 83.00
C 5.57 80.50 6.09 78.43 7.00 76.00
C 7.63 74.31 7.68 73.28 9.00 72.00
C 9.03 71.50 9.00 71.00 9.00 71.00
C 11.42 60.69 21.08 45.24 30.00 39.00
C 30.23 38.84 30.00 38.00 30.00 38.00
C 31.17 35.61 33.92 33.43 36.00 32.00
C 36.79 31.17 37.16 31.60 38.00 31.00
C 45.99 25.29 52.07 18.56 61.00 14.00
C 63.98 12.48 67.05 11.35 70.00 10.00
C 72.23 8.98 74.45 7.87 77.00 7.00
C 79.45 6.16 81.42 5.52 84.00 5.00
C 86.21 4.28 88.38 3.56 91.00 3.00
C 92.57 2.47 93.91 2.13 96.00 2.00
C 97.64 1.74 99.67 0.75 102.00 1.00
C 102.49 1.05 103.00 1.00 103.00 1.00
C 103.25 0.75 103.00 0.00 103.00 0.00
L 0.00 0.00
L 0.00 101.00 Z"/>
</g>
<g fill="#FEFFA7" fill-opacity="0.56" stroke="None">
<path d="
M 103.00 1.00 
C 106.50 1.00 111.32 1.81 114.00 0.00
L 103.00 0.00
C 103.00 0.00 103.25 0.75 103.00 1.00 Z"/>
</g>
<g fill="#FEFEFD" fill-opacity="1.00" stroke="None">
<path d="
M 103.00 1.00 
C 103.00 1.00 102.49 1.05 102.00 1.00
C 100.34 2.41 98.27 1.86 96.00 2.00
C 93.91 2.13 92.57 2.47 91.00 3.00
C 88.88 3.72 86.53 4.49 84.00 5.00
C 81.42 5.52 79.45 6.16 77.00 7.00
C 74.90 7.98 72.25 8.96 70.00 10.00
C 67.17 11.31 63.99 13.47 61.00 15.00
C 53.00 19.09 44.45 24.55 38.00 31.00
C 35.41 33.59 32.54 36.46 30.00 39.00
C 20.58 48.42 16.84 61.23 9.00 71.00
C 9.00 71.00 9.03 71.50 9.00 72.00
C 8.88 73.91 7.70 74.64 7.00 76.00
C 6.09 78.43 5.57 80.50 5.00 83.00
C 4.50 85.18 3.59 87.21 3.00 89.00
C 2.51 91.12 2.21 92.68 2.00 95.00
C 1.75 97.81 1.23 100.35 1.00 103.00
C 0.75 105.87 1.98 109.96 0.00 112.00
L 0.00 120.00
C 1.59 120.84 0.89 123.43 1.00 125.00
C 1.29 129.17 1.62 132.82 2.00 137.00
C 2.21 139.32 2.51 140.88 3.00 143.00
C 3.64 144.97 4.90 146.46 5.00 149.00
C 5.02 149.50 5.00 150.00 5.00 150.00
C 6.05 151.47 6.46 153.11 7.00 155.00
C 7.62 157.16 8.16 158.86 9.00 161.00
C 14.75 171.78 21.03 184.03 30.00 193.00
C 32.59 195.59 35.46 198.46 38.00 201.00
C 48.82 211.82 63.80 218.83 77.00 225.00
C 79.45 225.84 81.42 226.48 84.00 227.00
C 86.50 227.50 88.91 228.30 91.00 229.00
C 92.57 229.53 93.91 229.87 96.00 230.00
C 97.90 230.12 100.91 229.20 102.00 231.00
L 134.00 231.00
C 135.15 229.32 138.11 230.12 140.00 230.00
C 142.15 229.87 143.40 229.54 145.00 229.00
C 147.12 228.28 149.47 227.51 152.00 227.00
C 154.54 226.49 156.55 225.84 159.00 225.00
C 161.71 223.73 165.17 222.40 168.00 221.00
C 170.18 219.92 172.64 218.21 175.00 217.00
C 183.00 212.91 191.55 207.45 198.00 201.00
C 200.59 198.41 203.46 195.54 206.00 193.00
C 215.00 184.00 221.26 171.75 227.00 161.00
C 228.62 156.87 230.01 153.34 231.00 149.00
C 231.50 146.82 232.41 144.79 233.00 143.00
C 233.48 140.92 233.82 139.29 234.00 137.00
C 234.15 135.10 233.17 132.09 235.00 131.00
L 235.00 101.00
C 233.30 99.85 234.15 96.89 234.00 95.00
C 233.82 92.66 233.49 91.13 233.00 89.00
C 232.36 87.03 231.10 85.54 231.00 83.00
C 230.98 82.50 231.00 82.00 231.00 82.00
C 230.02 80.64 229.26 78.89 229.00 77.00
C 228.93 76.51 229.00 76.00 229.00 76.00
C 227.89 74.92 227.11 73.72 227.00 72.00
C 226.97 71.50 227.00 71.00 227.00 71.00
C 224.35 67.70 221.14 61.57 219.25 57.75 C 217.35 53.94 211.77 47.86 212.00 45.00
C 211.77 44.72 211.32 44.20 211.00 44.00
C 208.85 42.67 207.65 40.65 206.00 39.00
C 203.41 36.41 200.54 33.54 198.00 31.00
C 187.18 20.18 172.20 13.17 159.00 7.00
C 156.55 6.16 154.58 5.52 152.00 5.00
C 149.50 4.50 147.09 3.70 145.00 3.00
C 143.43 2.47 142.09 2.13 140.00 2.00
C 137.63 1.85 135.72 2.47 134.00 1.00
C 133.51 1.05 133.00 1.00 133.00 1.00
C 131.00 1.00 129.00 1.04 127.00 1.00
C 125.11 0.96 122.08 1.75 121.00 0.00
L 114.00 0.00
C 111.32 1.81 106.50 1.00 103.00 1.00
M 170.00 28.00 
C 177.95 29.82 191.15 31.89 197.25 37.75 C 203.34 43.61 205.57 57.51 207.00 66.00
C 213.95 83.28 222.16 101.27 220.01 121.01 C 217.86 140.74 212.50 157.13 202.23 173.23 C 191.95 189.33 178.62 195.45 164.00 206.00
C 159.81 210.53 154.82 218.16 148.75 220.75 C 142.69 223.34 129.56 216.45 123.00 216.00
C 94.69 214.07 69.96 208.12 49.25 187.75 C 28.54 167.38 22.15 144.16 19.00 116.00
C 16.11 107.45 11.06 93.13 14.77 84.77 C 18.48 76.41 27.80 71.42 33.00 64.00
C 42.63 50.24 50.55 39.16 65.75 29.75 C 80.94 20.33 98.06 15.43 117.00 14.00 C 135.94 12.57 153.72 20.89 170.00 28.00 Z"/>
</g>
<g fill="#FEFFC9" fill-opacity="0.89" stroke="None">
<path d="
M 127.00 1.00 
C 126.90 0.98 127.00 0.00 127.00 0.00
L 121.00 0.00
C 122.08 1.75 125.11 0.96 127.00 1.00 Z"/>
</g>
<g fill="#FEFF8E" fill-opacity="0.31" stroke="None">
<path d="
M 127.00 1.00 
C 129.00 1.04 131.00 1.00 133.00 1.00
C 132.75 0.75 133.00 0.00 133.00 0.00
L 127.00 0.00
C 127.00 0.00 126.90 0.98 127.00 1.00 Z"/>
</g>
<g fill="#000000" fill-opacity="0.00" stroke="None">
<path d="
M 133.00 1.00 
C 133.00 1.00 133.51 1.05 134.00 1.00
C 136.37 0.74 138.38 1.75 140.00 2.00
C 142.09 2.13 143.43 2.47 145.00 3.00
C 147.60 3.56 149.82 4.29 152.00 5.00
C 154.58 5.52 156.55 6.16 159.00 7.00
C 174.64 12.35 184.87 21.61 198.00 31.00
C 198.35 31.25 199.54 31.68 200.00 32.00
C 202.14 33.47 204.85 35.66 206.00 38.00
C 206.20 38.40 206.00 39.00 206.00 39.00
C 208.05 40.43 209.52 42.10 211.00 44.00
C 211.32 44.20 211.77 44.72 212.00 45.00
C 217.83 52.16 224.89 62.00 227.00 71.00
C 227.00 71.00 226.97 71.50 227.00 72.00
C 228.11 73.08 228.89 74.28 229.00 76.00
C 229.00 76.00 228.93 76.51 229.00 77.00
C 230.50 78.22 231.06 79.96 231.00 82.00
C 231.00 82.00 230.98 82.50 231.00 83.00
C 232.44 84.77 232.47 86.69 233.00 89.00
C 233.49 91.13 233.82 92.66 234.00 95.00
C 234.00 95.00 235.00 95.00 235.00 95.00
L 235.00 0.00
L 133.00 0.00
C 133.00 0.00 132.75 0.75 133.00 1.00 Z"/>
</g>
<g fill="#FEFF9C" fill-opacity="0.44" stroke="None">
<path d="
M 96.00 2.00 
C 98.27 1.86 100.34 2.41 102.00 1.00
C 99.67 0.75 97.64 1.74 96.00 2.00 Z"/>
</g>
<g fill="#FEFF9C" fill-opacity="0.44" stroke="None">
<path d="
M 140.00 2.00 
C 138.38 1.75 136.37 0.74 134.00 1.00
C 135.72 2.47 137.63 1.85 140.00 2.00 Z"/>
</g>
<g fill="#FEFF95" fill-opacity="0.43" stroke="None">
<path d="
M 84.00 5.00 
C 86.53 4.49 88.88 3.72 91.00 3.00
C 88.38 3.56 86.21 4.28 84.00 5.00 Z"/>
</g>
<g fill="#FEFF95" fill-opacity="0.43" stroke="None">
<path d="
M 152.00 5.00 
C 149.82 4.29 147.60 3.56 145.00 3.00
C 147.09 3.70 149.50 4.50 152.00 5.00 Z"/>
</g>
<g fill="#FEFF96" fill-opacity="0.37" stroke="None">
<path d="
M 70.00 10.00 
C 72.25 8.96 74.90 7.98 77.00 7.00
C 74.45 7.87 72.23 8.98 70.00 10.00 Z"/>
</g>
<g fill="#FEFF99" fill-opacity="0.44" stroke="None">
<path d="
M 198.00 31.00 
C 184.87 21.61 174.64 12.35 159.00 7.00
C 172.20 13.17 187.18 20.18 198.00 31.00 Z"/>
</g>
<g fill="#FEFFA8" fill-opacity="0.60" stroke="None">
<path d="
M 61.00 14.00 
C 60.78 14.12 61.00 15.00 61.00 15.00
C 63.99 13.47 67.17 11.31 70.00 10.00
C 67.05 11.35 63.98 12.48 61.00 14.00 Z"/>
</g>
<g fill="#FEFF95" fill-opacity="0.40" stroke="None">
<path d="
M 38.00 31.00 
C 44.45 24.55 53.00 19.09 61.00 15.00
C 61.00 15.00 60.78 14.12 61.00 14.00
C 52.07 18.56 45.99 25.29 38.00 31.00 Z"/>
</g>
<g fill="#119570" fill-opacity="1.00" stroke="None">
<path d="
M 33.00 64.00 
C 68.86 33.36 122.14 17.05 170.00 28.00
C 153.72 20.89 135.94 12.57 117.00 14.00 C 98.06 15.43 80.94 20.33 65.75 29.75 C 50.55 39.16 42.63 50.24 33.00 64.00 Z"/>
</g>
<g fill="#F9AC31" fill-opacity="1.00" stroke="None">
<path d="
M 33.00 64.00 
C 27.80 71.42 18.48 76.41 14.77 84.77 C 11.06 93.13 16.11 107.45 19.00 116.00
C 27.18 140.23 41.24 163.78 61.00 181.00
C 65.48 172.37 69.26 161.82 77.00 155.00
C 72.91 151.03 68.57 146.75 65.00 142.00
C 61.32 144.14 60.62 150.31 56.00 151.00
C 44.23 133.03 35.12 113.15 31.00 92.00
C 37.04 85.59 42.20 79.52 49.10 74.10 C 55.99 68.67 63.30 63.79 71.23 59.23 C 79.16 54.67 87.98 52.18 97.02 49.02 C 106.07 45.87 118.07 43.90 128.00 43.00 C 137.93 42.11 152.29 41.80 161.67 44.33 C 171.05 46.86 183.47 45.77 185.99 56.01 C 188.52 66.24 193.32 75.43 192.00 87.00 C 190.68 98.57 201.44 100.97 210.00 106.00
C 210.45 92.29 209.75 78.91 207.00 66.00
C 205.57 57.51 203.34 43.61 197.25 37.75 C 191.15 31.89 177.95 29.82 170.00 28.00
C 122.14 17.05 68.86 33.36 33.00 64.00 Z"/>
</g>
<g fill="#FEFFC2" fill-opacity="0.76" stroke="None">
<path d="
M 36.00 32.00 
C 34.01 34.09 32.38 36.34 30.00 38.00
C 30.00 38.00 30.23 38.84 30.00 39.00
C 32.54 36.46 35.41 33.59 38.00 31.00
C 37.16 31.60 36.79 31.17 36.00 32.00 Z"/>
</g>
<g fill="#FEFFC2" fill-opacity="0.76" stroke="None">
<path d="
M 206.00 39.00 
C 206.00 39.00 206.20 38.40 206.00 38.00
C 203.58 36.31 201.94 34.03 200.00 32.00
C 199.54 31.68 198.35 31.25 198.00 31.00
C 200.54 33.54 203.41 36.41 206.00 39.00 Z"/>
</g>
<g fill="#FEFF6D" fill-opacity="0.02" stroke="None">
<path d="
M 30.00 38.00 
C 32.38 36.34 34.01 34.09 36.00 32.00
C 33.92 33.43 31.17 35.61 30.00 38.00 Z"/>
</g>
<g fill="#FEFF74" fill-opacity="0.02" stroke="None">
<path d="
M 206.00 38.00 
C 204.85 35.66 202.14 33.47 200.00 32.00
C 201.94 34.03 203.58 36.31 206.00 38.00 Z"/>
</g>
<g fill="#FEFF93" fill-opacity="0.39" stroke="None">
<path d="
M 9.00 71.00 
C 16.84 61.23 20.58 48.42 30.00 39.00
C 21.08 45.24 11.42 60.69 9.00 71.00 Z"/>
</g>
<g fill="#FEFF90" fill-opacity="0.37" stroke="None">
<path d="
M 211.00 44.00 
C 209.52 42.10 208.05 40.43 206.00 39.00
C 207.65 40.65 208.85 42.67 211.00 44.00 Z"/>
</g>
<g fill="#0D9570" fill-opacity="1.00" stroke="None">
<path d="
M 65.00 142.00 
C 55.87 129.85 50.70 118.15 46.22 103.78 C 41.75 89.40 56.18 81.40 68.70 73.70 C 81.22 66.00 93.51 61.59 109.08 57.08 C 124.64 52.56 143.69 54.48 161.22 55.78 C 178.75 57.08 180.85 76.76 181.00 93.00
C 175.05 91.53 169.08 90.11 163.00 89.00
C 163.34 83.41 161.17 78.48 161.00 73.00
C 149.99 71.14 137.11 70.09 126.00 72.00 C 114.89 73.91 105.55 76.57 94.98 79.98 C 84.40 83.38 81.00 88.73 70.75 93.75 C 60.50 98.77 65.50 109.10 70.31 117.69 C 75.11 126.29 79.25 132.91 86.25 139.75 C 93.24 146.59 100.14 151.62 108.08 156.92 C 116.03 162.22 125.08 166.93 134.00 170.00
C 137.03 163.48 142.13 160.07 145.75 153.75 C 149.38 147.44 152.02 142.06 154.98 134.98 C 157.93 127.89 162.46 120.50 148.00 122.00 C 133.54 123.51 115.47 129.13 108.00 112.00
C 130.19 104.65 158.40 102.34 180.00 112.00
C 189.77 115.34 199.76 118.12 208.00 125.00
C 201.51 155.39 184.98 182.48 164.00 206.00
C 178.62 195.45 191.95 189.33 202.23 173.23 C 212.50 157.13 217.86 140.74 220.01 121.01 C 222.16 101.27 213.95 83.28 207.00 66.00
C 209.75 78.91 210.45 92.29 210.00 106.00
C 201.44 100.97 190.68 98.57 192.00 87.00 C 193.32 75.43 188.52 66.24 185.99 56.01 C 183.47 45.77 171.05 46.86 161.67 44.33 C 152.29 41.80 137.93 42.11 128.00 43.00 C 118.07 43.90 106.07 45.87 97.02 49.02 C 87.98 52.18 79.16 54.67 71.23 59.23 C 63.30 63.79 55.99 68.67 49.10 74.10 C 42.20 79.52 37.04 85.59 31.00 92.00
C 35.12 113.15 44.23 133.03 56.00 151.00
C 60.62 150.31 61.32 144.14 65.00 142.00 Z"/>
</g>
<g fill="#FEFF94" fill-opacity="0.38" stroke="None">
<path d="
M 227.00 71.00 
C 224.89 62.00 217.83 52.16 212.00 45.00
C 211.77 47.86 217.35 53.94 219.25 57.75 C 221.14 61.57 224.35 67.70 227.00 71.00 Z"/>
</g>
<g fill="#FDFEFD" fill-opacity="1.00" stroke="None">
<path d="
M 65.00 142.00 
C 68.57 146.75 72.91 151.03 77.00 155.00
C 94.57 172.06 116.98 184.41 140.00 190.00
C 155.34 172.11 169.22 150.53 177.00 128.00
C 177.69 125.31 180.95 114.17 180.00 112.00
C 158.40 102.34 130.19 104.65 108.00 112.00
C 115.47 129.13 133.54 123.51 148.00 122.00 C 162.46 120.50 157.93 127.89 154.98 134.98 C 152.02 142.06 149.38 147.44 145.75 153.75 C 142.13 160.07 137.03 163.48 134.00 170.00
C 125.08 166.93 116.03 162.22 108.08 156.92 C 100.14 151.62 93.24 146.59 86.25 139.75 C 79.25 132.91 75.11 126.29 70.31 117.69 C 65.50 109.10 60.50 98.77 70.75 93.75 C 81.00 88.73 84.40 83.38 94.98 79.98 C 105.55 76.57 114.89 73.91 126.00 72.00 C 137.11 70.09 149.99 71.14 161.00 73.00
C 161.17 78.48 163.34 83.41 163.00 89.00
C 169.08 90.11 175.05 91.53 181.00 93.00
C 180.85 76.76 178.75 57.08 161.22 55.78 C 143.69 54.48 124.64 52.56 109.08 57.08 C 93.51 61.59 81.22 66.00 68.70 73.70 C 56.18 81.40 41.75 89.40 46.22 103.78 C 50.70 118.15 55.87 129.85 65.00 142.00 Z"/>
</g>
<g fill="#FEFF97" fill-opacity="0.44" stroke="None">
<path d="
M 7.00 76.00 
C 7.70 74.64 8.88 73.91 9.00 72.00
C 7.68 73.28 7.63 74.31 7.00 76.00 Z"/>
</g>
<g fill="#FEFF97" fill-opacity="0.44" stroke="None">
<path d="
M 229.00 76.00 
C 228.89 74.28 228.11 73.08 227.00 72.00
C 227.11 73.72 227.89 74.92 229.00 76.00 Z"/>
</g>
<g fill="#FEFF86" fill-opacity="0.35" stroke="None">
<path d="
M 231.00 82.00 
C 231.06 79.96 230.50 78.22 229.00 77.00
C 229.26 78.89 230.02 80.64 231.00 82.00 Z"/>
</g>
<g fill="#FEFF9B" fill-opacity="0.42" stroke="None">
<path d="
M 3.00 89.00 
C 3.59 87.21 4.50 85.18 5.00 83.00
C 4.42 84.79 3.50 86.83 3.00 89.00 Z"/>
</g>
<g fill="#FEFF97" fill-opacity="0.42" stroke="None">
<path d="
M 233.00 89.00 
C 232.47 86.69 232.44 84.77 231.00 83.00
C 231.10 85.54 232.36 87.03 233.00 89.00 Z"/>
</g>
<g fill="#FEFFA4" fill-opacity="0.41" stroke="None">
<path d="
M 0.00 101.00 
L 0.00 103.00
C 0.50 103.00 1.00 103.00 1.00 103.00
C 1.23 100.35 1.75 97.81 2.00 95.00
C 1.75 96.36 0.76 99.68 0.00 101.00 Z"/>
</g>
<g fill="#FEFFA9" fill-opacity="0.53" stroke="None">
<path d="
M 235.00 101.00 
L 235.00 95.00
C 235.00 95.00 234.00 95.00 234.00 95.00
C 234.15 96.89 233.30 99.85 235.00 101.00 Z"/>
</g>
<g fill="#FEFFAC" fill-opacity="0.65" stroke="None">
<path d="
M 0.00 112.00 
C 1.98 109.96 0.75 105.87 1.00 103.00
C 1.00 103.00 0.50 103.00 0.00 103.00
L 0.00 112.00 Z"/>
</g>
<g fill="#FAAD31" fill-opacity="1.00" stroke="None">
<path d="
M 177.00 128.00 
C 178.45 130.83 186.22 129.79 188.00 133.00
C 183.16 148.75 174.55 162.62 165.25 176.25 C 155.94 189.88 144.85 206.70 127.78 198.22 C 110.71 189.74 97.74 187.99 83.00 176.00
C 78.72 181.92 73.16 190.99 80.75 195.25 C 88.33 199.51 93.11 202.78 100.69 206.31 C 108.28 209.83 115.80 212.33 123.00 216.00
C 129.56 216.45 142.69 223.34 148.75 220.75 C 154.82 218.16 159.81 210.53 164.00 206.00
C 184.98 182.48 201.51 155.39 208.00 125.00
C 199.76 118.12 189.77 115.34 180.00 112.00
C 180.95 114.17 177.69 125.31 177.00 128.00 Z"/>
</g>
<g fill="#0F9570" fill-opacity="1.00" stroke="None">
<path d="
M 123.00 216.00 
C 115.80 212.33 108.28 209.83 100.69 206.31 C 93.11 202.78 88.33 199.51 80.75 195.25 C 73.16 190.99 78.72 181.92 83.00 176.00
C 97.74 187.99 110.71 189.74 127.78 198.22 C 144.85 206.70 155.94 189.88 165.25 176.25 C 174.55 162.62 183.16 148.75 188.00 133.00
C 186.22 129.79 178.45 130.83 177.00 128.00
C 169.22 150.53 155.34 172.11 140.00 190.00
C 116.98 184.41 94.57 172.06 77.00 155.00
C 69.26 161.82 65.48 172.37 61.00 181.00
C 41.24 163.78 27.18 140.23 19.00 116.00
C 22.15 144.16 28.54 167.38 49.25 187.75 C 69.96 208.12 94.69 214.07 123.00 216.00 Z"/>
</g>
<g fill="#FEFFC1" fill-opacity="0.86" stroke="None">
<path d="
M 0.00 125.00 
C 0.50 125.00 1.00 125.00 1.00 125.00
C 0.89 123.43 1.59 120.84 0.00 120.00
L 0.00 125.00 Z"/>
</g>
<g fill="#FEFF9E" fill-opacity="0.40" stroke="None">
<path d="
M 0.00 131.00 
C 0.76 132.32 1.75 135.64 2.00 137.00
C 1.62 132.82 1.29 129.17 1.00 125.00
C 1.00 125.00 0.50 125.00 0.00 125.00
L 0.00 131.00 Z"/>
</g>
<g fill="#000000" fill-opacity="0.00" stroke="None">
<path d="
M 0.00 231.00 
L 96.00 231.00
C 96.00 230.50 96.00 230.00 96.00 230.00
C 93.91 229.87 92.57 229.53 91.00 229.00
C 88.40 228.44 86.18 227.71 84.00 227.00
C 81.42 226.48 79.45 225.84 77.00 225.00
C 61.36 219.65 51.13 210.39 38.00 201.00
C 37.65 200.75 36.46 200.32 36.00 200.00
C 33.86 198.53 31.15 196.34 30.00 194.00
C 29.80 193.60 30.00 193.00 30.00 193.00
C 19.99 186.00 13.23 171.77 9.00 161.00
C 8.16 158.86 7.62 157.16 7.00 155.00
C 6.25 153.14 4.92 152.58 5.00 150.00
C 5.00 150.00 5.02 149.50 5.00 149.00
C 3.56 147.23 3.53 145.31 3.00 143.00
C 2.51 140.88 2.21 139.32 2.00 137.00
C 1.75 135.64 0.76 132.32 0.00 131.00
L 0.00 231.00 Z"/>
</g>
<g fill="#FEFFA9" fill-opacity="0.53" stroke="None">
<path d="
M 234.00 137.00 
C 234.00 137.00 235.00 137.00 235.00 137.00
L 235.00 131.00
C 233.17 132.09 234.15 135.10 234.00 137.00 Z"/>
</g>
<g fill="#000000" fill-opacity="0.00" stroke="None">
<path d="
M 233.00 143.00 
C 232.50 145.17 231.58 147.21 231.00 149.00
C 230.01 153.34 228.62 156.87 227.00 161.00
C 222.78 171.74 215.97 186.03 206.00 193.00
C 205.77 193.16 206.00 194.00 206.00 194.00
C 204.83 196.39 202.08 198.57 200.00 200.00
C 199.21 200.83 198.84 200.40 198.00 201.00
C 190.01 206.71 183.93 213.44 175.00 218.00
C 172.71 219.17 170.21 219.91 168.00 221.00
C 165.04 222.46 162.32 223.86 159.00 225.00
C 156.55 225.84 154.54 226.49 152.00 227.00
C 149.79 227.72 147.62 228.44 145.00 229.00
C 143.40 229.54 142.15 229.87 140.00 230.00
C 139.98 230.00 140.00 231.00 140.00 231.00
L 235.00 231.00
L 235.00 137.00
C 235.00 137.00 234.00 137.00 234.00 137.00
C 233.82 139.29 233.48 140.92 233.00 143.00 Z"/>
</g>
<g fill="#FEFF97" fill-opacity="0.42" stroke="None">
<path d="
M 5.00 149.00 
C 4.90 146.46 3.64 144.97 3.00 143.00
C 3.53 145.31 3.56 147.23 5.00 149.00 Z"/>
</g>
<g fill="#FEFF9B" fill-opacity="0.42" stroke="None">
<path d="
M 231.00 149.00 
C 231.58 147.21 232.50 145.17 233.00 143.00
C 232.41 144.79 231.50 146.82 231.00 149.00 Z"/>
</g>
<g fill="#FEFF86" fill-opacity="0.35" stroke="None">
<path d="
M 7.00 155.00 
C 6.46 153.11 6.05 151.47 5.00 150.00
C 4.92 152.58 6.25 153.14 7.00 155.00 Z"/>
</g>
<g fill="#FEFF99" fill-opacity="0.39" stroke="None">
<path d="
M 30.00 193.00 
C 21.03 184.03 14.75 171.78 9.00 161.00
C 13.23 171.77 19.99 186.00 30.00 193.00 Z"/>
</g>
<g fill="#FEFF93" fill-opacity="0.39" stroke="None">
<path d="
M 206.00 193.00 
C 215.97 186.03 222.78 171.74 227.00 161.00
C 221.26 171.75 215.00 184.00 206.00 193.00 Z"/>
</g>
<g fill="#FEFFC2" fill-opacity="0.76" stroke="None">
<path d="
M 30.00 194.00 
C 32.42 195.69 34.06 197.97 36.00 200.00
C 36.46 200.32 37.65 200.75 38.00 201.00
C 35.46 198.46 32.59 195.59 30.00 193.00
C 30.00 193.00 29.80 193.60 30.00 194.00 Z"/>
</g>
<g fill="#FEFFC2" fill-opacity="0.76" stroke="None">
<path d="
M 198.00 201.00 
C 198.84 200.40 199.21 200.83 200.00 200.00
C 201.99 197.91 203.62 195.66 206.00 194.00
C 206.00 194.00 205.77 193.16 206.00 193.00
C 203.46 195.54 200.59 198.41 198.00 201.00 Z"/>
</g>
<g fill="#FEFF74" fill-opacity="0.02" stroke="None">
<path d="
M 36.00 200.00 
C 34.06 197.97 32.42 195.69 30.00 194.00
C 31.15 196.34 33.86 198.53 36.00 200.00 Z"/>
</g>
<g fill="#FEFF6D" fill-opacity="0.02" stroke="None">
<path d="
M 200.00 200.00 
C 202.08 198.57 204.83 196.39 206.00 194.00
C 203.62 195.66 201.99 197.91 200.00 200.00 Z"/>
</g>
<g fill="#FEFF99" fill-opacity="0.44" stroke="None">
<path d="
M 77.00 225.00 
C 63.80 218.83 48.82 211.82 38.00 201.00
C 51.13 210.39 61.36 219.65 77.00 225.00 Z"/>
</g>
<g fill="#FEFF95" fill-opacity="0.40" stroke="None">
<path d="
M 175.00 217.00 
C 174.78 217.12 175.00 218.00 175.00 218.00
C 183.93 213.44 190.01 206.71 198.00 201.00
C 191.55 207.45 183.00 212.91 175.00 217.00 Z"/>
</g>
<g fill="#FEFFAC" fill-opacity="0.63" stroke="None">
<path d="
M 168.00 221.00 
C 170.21 219.91 172.71 219.17 175.00 218.00
C 175.00 218.00 174.78 217.12 175.00 217.00
C 172.64 218.21 170.18 219.92 168.00 221.00 Z"/>
</g>
<g fill="#FEFF97" fill-opacity="0.40" stroke="None">
<path d="
M 159.00 225.00 
C 162.32 223.86 165.04 222.46 168.00 221.00
C 165.17 222.40 161.71 223.73 159.00 225.00 Z"/>
</g>
<g fill="#FEFF95" fill-opacity="0.43" stroke="None">
<path d="
M 91.00 229.00 
C 88.91 228.30 86.50 227.50 84.00 227.00
C 86.18 227.71 88.40 228.44 91.00 229.00 Z"/>
</g>
<g fill="#FEFF95" fill-opacity="0.43" stroke="None">
<path d="
M 145.00 229.00 
C 147.62 228.44 149.79 227.72 152.00 227.00
C 149.47 227.51 147.12 228.28 145.00 229.00 Z"/>
</g>
<g fill="#FEFF9C" fill-opacity="0.44" stroke="None">
<path d="
M 96.00 231.00 
L 102.00 231.00
C 100.91 229.20 97.90 230.12 96.00 230.00
C 96.00 230.00 96.00 230.50 96.00 231.00 Z"/>
</g>
<g fill="#FEFF9C" fill-opacity="0.44" stroke="None">
<path d="
M 134.00 231.00 
L 140.00 231.00
C 140.00 231.00 139.98 230.00 140.00 230.00
C 138.11 230.12 135.15 229.32 134.00 231.00 Z"/>
</g>
</svg>